<svg width="1758" height="1013" viewBox="0 0 1758 1013" fill="none" xmlns="http://www.w3.org/2000/svg">
<rect width="1758" height="1013" fill="#23C3E6" fill-opacity="0.96"/>
<path d="M870.708 36.5151C873.989 31.0395 875.63 28.3017 877.746 27.3985C879.514 26.6441 881.507 26.6441 883.261 27.3985C885.36 28.3017 886.948 31.0395 890.125 36.515L898.997 51.8089C901.198 55.6035 902.299 57.5009 903.878 58.4211C905.207 59.1952 906.759 59.5057 908.292 59.3043C910.114 59.0648 911.889 57.7429 915.438 55.0989L930.092 44.1808C935.257 40.3331 937.839 38.4092 940.143 38.3909C942.067 38.3757 943.904 39.1526 945.224 40.5392C946.805 42.1996 947.19 45.378 947.959 51.7348L949.996 68.5479C950.533 72.9863 950.802 75.2055 951.909 76.685C952.839 77.9291 954.162 78.8226 955.667 79.2234C957.456 79.7 959.625 79.1275 963.964 77.9824L981.413 73.377C987.754 71.7034 990.925 70.8666 993.075 71.737C994.87 72.4637 996.275 73.9064 996.954 75.7201C997.767 77.8929 996.848 81.0409 995.008 87.3368L990.436 102.984C989.148 107.389 988.505 109.592 988.954 111.417C989.332 112.952 990.221 114.308 991.476 115.264C992.968 116.401 995.237 116.679 999.776 117.235L1016.93 119.335C1023.55 120.146 1026.86 120.551 1028.53 122.187C1029.92 123.552 1030.68 125.446 1030.6 127.407C1030.52 129.757 1028.41 132.361 1024.18 137.57L1014.01 150.107C1011.07 153.736 1009.59 155.551 1009.3 157.436C1009.06 159.02 1009.36 160.635 1010.16 162.012C1011.12 163.65 1013.15 164.774 1017.2 167.022L1031.56 174.994C1037.42 178.246 1040.36 179.873 1041.29 182.032C1042.07 183.833 1042.05 185.887 1041.23 187.688C1040.26 189.847 1037.3 191.474 1031.37 194.726L1016.86 202.698C1012.76 204.946 1010.72 206.07 1009.73 207.708C1008.9 209.085 1008.56 210.7 1008.78 212.284C1009.03 214.169 1010.47 215.984 1013.35 219.613L1023.28 232.15C1027.4 237.359 1029.47 239.963 1029.51 242.313C1029.54 244.274 1028.75 246.168 1027.33 247.533C1025.63 249.169 1022.31 249.574 1015.68 250.385L998.485 252.485C993.935 253.041 991.66 253.319 990.147 254.456C988.874 255.412 987.959 256.768 987.552 258.303C987.067 260.128 987.669 262.331 988.872 266.736L993.145 282.383C994.865 288.679 995.725 291.827 994.87 294C994.156 295.814 992.724 297.256 990.915 297.983C988.748 298.853 985.593 298.017 979.284 296.343L961.923 291.738C957.606 290.592 955.448 290.02 953.649 290.497C952.137 290.897 950.797 291.791 949.843 293.035C948.708 294.514 948.397 296.734 947.775 301.172L945.417 317.985C944.526 324.342 944.08 327.52 942.468 329.181C941.122 330.567 939.269 331.344 937.346 331.329C935.043 331.311 932.497 329.387 927.406 325.539L912.96 314.621C909.461 311.977 907.712 310.655 905.894 310.416C904.365 310.214 902.807 310.525 901.464 311.299C899.866 312.219 898.73 314.116 896.456 317.911L887.292 333.205C884.011 338.68 882.37 341.418 880.254 342.321C878.486 343.076 876.493 343.076 874.739 342.321C872.64 341.418 871.052 338.68 867.876 333.205L859.003 317.911C856.802 314.116 855.702 312.219 854.122 311.299C852.793 310.525 851.241 310.214 849.708 310.416C847.886 310.655 846.111 311.977 842.563 314.621L827.908 325.539C822.743 329.387 820.161 331.311 817.857 331.329C815.934 331.344 814.096 330.567 812.776 329.181C811.195 327.52 810.81 324.342 810.041 317.985L808.004 301.172C807.467 296.734 807.198 294.514 806.092 293.035C805.161 291.791 803.838 290.897 802.333 290.497C800.544 290.02 798.375 290.592 794.037 291.738L776.587 296.343C770.246 298.017 767.075 298.853 764.925 297.983C763.13 297.256 761.725 295.814 761.046 294C760.233 291.827 761.153 288.679 762.992 282.383L767.565 266.736C768.852 262.331 769.496 260.128 769.046 258.303C768.668 256.768 767.779 255.412 766.524 254.456C765.032 253.319 762.763 253.041 758.224 252.485L741.071 250.385C734.453 249.574 731.144 249.169 729.471 247.533C728.075 246.168 727.322 244.274 727.395 242.313C727.483 239.963 729.595 237.359 733.82 232.15L743.99 219.613C746.934 215.984 748.405 214.169 748.697 212.284C748.943 210.7 748.639 209.085 747.835 207.708C746.88 206.07 744.855 204.946 740.804 202.698L726.437 194.726C720.575 191.474 717.644 189.847 716.711 187.688C715.933 185.887 715.952 183.833 716.765 182.032C717.74 179.873 720.701 178.246 726.625 174.994L741.144 167.022C745.238 164.774 747.285 163.65 748.272 162.012C749.101 160.635 749.436 159.02 749.221 157.436C748.965 155.551 747.528 153.736 744.653 150.107L734.723 137.57C730.598 132.361 728.535 129.757 728.492 127.407C728.457 125.446 729.246 123.552 730.668 122.187C732.372 120.551 735.689 120.146 742.323 119.335L759.515 117.235C764.065 116.679 766.34 116.401 767.854 115.264C769.126 114.308 770.041 112.952 770.448 111.417C770.933 109.592 770.331 107.389 769.128 102.984L764.855 87.3368C763.135 81.0409 762.275 77.8929 763.13 75.7201C763.844 73.9064 765.276 72.4637 767.085 71.737C769.252 70.8666 772.407 71.7034 778.716 73.377L796.078 77.9824C800.394 79.1275 802.552 79.7 804.351 79.2234C805.863 78.8226 807.203 77.9291 808.157 76.685C809.292 75.2055 809.603 72.9863 810.226 68.5479L812.583 51.7348C813.474 45.378 813.92 42.1997 815.532 40.5392C816.878 39.1526 818.731 38.3757 820.654 38.3909C822.957 38.4092 825.503 40.3331 830.594 44.1808L845.041 55.0989C848.539 57.7429 850.288 59.0648 852.106 59.3043C853.635 59.5057 855.193 59.1952 856.536 58.4211C858.134 57.5009 859.271 55.6035 861.544 51.8089L870.708 36.5151Z" fill="#FAFF00"/>
<ellipse cx="348.369" cy="93.3446" rx="33.3222" ry="34.5058" fill="white"/>
<ellipse cx="315.047" cy="120.349" rx="33.3222" ry="34.5058" fill="white"/>
<ellipse cx="33.3101" cy="34.5186" rx="33.3101" ry="34.5186" transform="matrix(-0.980941 0.194305 -0.197906 -0.980221 266.704 136.711)" fill="white"/>
<ellipse cx="33.2975" cy="34.5319" rx="33.2975" ry="34.5319" transform="matrix(0.960651 -0.277757 0.282688 0.959212 260.171 42.4651)" fill="white"/>
<ellipse cx="268.597" cy="86.3434" rx="33.3222" ry="34.5058" fill="white"/>
<ellipse cx="235.275" cy="68.3403" rx="33.3222" ry="34.5058" fill="white"/>
<ellipse cx="268.597" cy="120.349" rx="33.3222" ry="34.5058" fill="white"/>
<ellipse cx="33.3221" cy="34.506" rx="33.3221" ry="34.506" transform="matrix(-0.999751 -0.0223013 0.0227311 -0.999742 467.287 288.339)" fill="white"/>
<ellipse cx="33.3221" cy="34.506" rx="33.3221" ry="34.506" transform="matrix(-0.999751 -0.0223013 0.0227311 -0.999742 501.215 262.085)" fill="white"/>
<ellipse cx="33.31" cy="34.5188" rx="33.31" ry="34.5188" transform="matrix(0.985114 -0.17238 0.175573 0.984382 517.388 211.565)" fill="white"/>
<ellipse cx="33.2973" cy="34.5321" rx="33.2973" ry="34.5321" transform="matrix(-0.966726 0.256264 -0.260811 -0.965269 521.777 305.932)" fill="white"/>
<ellipse cx="33.3221" cy="34.506" rx="33.3221" ry="34.506" transform="matrix(-0.999751 -0.0223013 0.0227311 -0.999742 546.879 297.118)" fill="white"/>
<ellipse cx="33.3221" cy="34.506" rx="33.3221" ry="34.506" transform="matrix(-0.999751 -0.0223013 0.0227311 -0.999742 579.784 315.859)" fill="white"/>
<ellipse cx="33.3221" cy="34.506" rx="33.3221" ry="34.506" transform="matrix(-0.999751 -0.0223013 0.0227311 -0.999742 547.652 263.12)" fill="white"/>
<ellipse cx="194.001" cy="254.237" rx="33.3222" ry="34.5058" fill="white"/>
<ellipse cx="160.678" cy="281.241" rx="33.3222" ry="34.5058" fill="white"/>
<ellipse cx="33.3101" cy="34.5186" rx="33.3101" ry="34.5186" transform="matrix(-0.980941 0.194305 -0.197906 -0.980221 112.336 297.603)" fill="white"/>
<ellipse cx="33.2975" cy="34.5319" rx="33.2975" ry="34.5319" transform="matrix(0.960651 -0.277757 0.282688 0.959212 105.803 203.357)" fill="white"/>
<ellipse cx="114.229" cy="247.235" rx="33.3222" ry="34.5058" fill="white"/>
<ellipse cx="80.9071" cy="229.232" rx="33.3222" ry="34.5058" fill="white"/>
<ellipse cx="114.229" cy="281.241" rx="33.3222" ry="34.5058" fill="white"/>
<ellipse cx="33.3222" cy="34.5058" rx="33.3222" ry="34.5058" transform="matrix(-0.999995 -0.00325519 0.00331795 -0.999994 1173.46 123.066)" fill="white"/>
<ellipse cx="33.3222" cy="34.5058" rx="33.3222" ry="34.5058" transform="matrix(-0.999995 -0.00325519 0.00331795 -0.999994 1206.87 96.17)" fill="white"/>
<ellipse cx="33.3101" cy="34.5186" rx="33.3101" ry="34.5186" transform="matrix(0.981581 -0.191111 0.194652 0.98086 1222.06 45.3517)" fill="white"/>
<ellipse cx="33.2975" cy="34.5319" rx="33.2975" ry="34.5319" transform="matrix(-0.961568 0.274628 -0.279503 -0.960127 1228.28 139.618)" fill="white"/>
<ellipse cx="33.3222" cy="34.5058" rx="33.3222" ry="34.5058" transform="matrix(-0.999995 -0.00325519 0.00331795 -0.999994 1253.21 130.327)" fill="white"/>
<ellipse cx="33.3222" cy="34.5058" rx="33.3222" ry="34.5058" transform="matrix(-0.999995 -0.00325519 0.00331795 -0.999994 1286.47 148.438)" fill="white"/>
<ellipse cx="33.3222" cy="34.5058" rx="33.3222" ry="34.5058" transform="matrix(-0.999995 -0.00325519 0.00331795 -0.999994 1253.32 96.3212)" fill="white"/>
<ellipse cx="33.3222" cy="34.5058" rx="33.3222" ry="34.5058" transform="matrix(-0.999995 -0.00325519 0.00331795 -0.999994 1569.29 133.068)" fill="white"/>
<ellipse cx="33.3222" cy="34.5058" rx="33.3222" ry="34.5058" transform="matrix(-0.999995 -0.00325519 0.00331795 -0.999994 1602.7 106.172)" fill="white"/>
<ellipse cx="33.3101" cy="34.5186" rx="33.3101" ry="34.5186" transform="matrix(0.981581 -0.191111 0.194652 0.98086 1617.89 55.3534)" fill="white"/>
<ellipse cx="33.2975" cy="34.5319" rx="33.2975" ry="34.5319" transform="matrix(-0.961568 0.274628 -0.279503 -0.960127 1624.11 149.62)" fill="white"/>
<ellipse cx="33.3222" cy="34.5058" rx="33.3222" ry="34.5058" transform="matrix(-0.999995 -0.00325519 0.00331795 -0.999994 1649.04 140.328)" fill="white"/>
<ellipse cx="33.3222" cy="34.5058" rx="33.3222" ry="34.5058" transform="matrix(-0.999995 -0.00325519 0.00331795 -0.999994 1682.3 158.44)" fill="white"/>
<ellipse cx="33.3222" cy="34.5058" rx="33.3222" ry="34.5058" transform="matrix(-0.999995 -0.00325519 0.00331795 -0.999994 1649.15 106.323)" fill="white"/>
<ellipse cx="1488.74" cy="309.561" rx="33.3222" ry="34.5058" fill="white"/>
<ellipse cx="1455.41" cy="336.566" rx="33.3222" ry="34.5058" fill="white"/>
<ellipse cx="33.3101" cy="34.5186" rx="33.3101" ry="34.5186" transform="matrix(-0.980941 0.194305 -0.197906 -0.980221 1407.07 352.928)" fill="white"/>
<ellipse cx="33.2975" cy="34.5319" rx="33.2975" ry="34.5319" transform="matrix(0.960651 -0.277757 0.282688 0.959212 1400.54 258.682)" fill="white"/>
<ellipse cx="1408.96" cy="302.56" rx="33.3222" ry="34.5058" fill="white"/>
<ellipse cx="1375.64" cy="284.557" rx="33.3222" ry="34.5058" fill="white"/>
<ellipse cx="1408.96" cy="336.566" rx="33.3222" ry="34.5058" fill="white"/>
</svg>
