<svg width="1741" height="1013" viewBox="0 0 1741 1013" fill="none" xmlns="http://www.w3.org/2000/svg">
<rect width="1741" height="1013" fill="#010637"/>
<circle cx="871" cy="134" r="110" fill="white"/>
<path d="M800 142.5C807.078 142.5 812.5 136.046 812.5 128.5C812.5 120.954 807.078 114.5 800 114.5C792.922 114.5 787.5 120.954 787.5 128.5C787.5 136.046 792.922 142.5 800 142.5Z" fill="#F6F6F6" stroke="#B6B6B6" stroke-width="3"/>
<path d="M948.5 162.5C948.5 173.65 940.117 182.5 930 182.5C919.883 182.5 911.5 173.65 911.5 162.5C911.5 151.35 919.883 142.5 930 142.5C940.117 142.5 948.5 151.35 948.5 162.5Z" fill="#F7F7F7" stroke="#C7C7C7" stroke-width="3"/>
<path d="M908.5 79.5C908.5 90.6497 900.117 99.5 890 99.5C879.883 99.5 871.5 90.6497 871.5 79.5C871.5 68.3503 879.883 59.5 890 59.5C900.117 59.5 908.5 68.3503 908.5 79.5Z" fill="#F6F6F6" stroke="#C7C7C7" stroke-width="3"/>
<path d="M843 192C843 195.996 840.192 199 837 199C833.808 199 831 195.996 831 192C831 188.004 833.808 185 837 185C840.192 185 843 188.004 843 192Z" fill="#F6F6F6" stroke="#C7BFBF" stroke-width="2"/>
<path d="M829.5 47C829.5 52.8703 825.404 57.5 820.5 57.5C815.605 57.5 811.515 52.8876 811.5 47.033C811.993 43.3609 812.839 41.759 814.141 40.6273C814.814 40.0414 815.63 39.5638 816.655 39.0007C816.811 38.9147 816.972 38.827 817.137 38.7368C818.026 38.2519 819.045 37.6961 820.192 36.9704C822.19 36.567 824.485 37.5506 826.329 39.4456C828.188 41.3557 829.5 44.1096 829.5 47Z" fill="#F6F6F6" stroke="#BFBFBF"/>
<path d="M329.5 95L331.035 101.795L336.925 98.0754L333.205 103.965L340 105.5L333.205 107.035L336.925 112.925L331.035 109.205L329.5 116L327.965 109.205L322.075 112.925L325.795 107.035L319 105.5L325.795 103.965L322.075 98.0754L327.965 101.795L329.5 95Z" fill="white"/>
<path d="M499.5 206L501.327 215.383L508.339 210.247L503.911 218.381L512 220.5L503.911 222.619L508.339 230.753L501.327 225.617L499.5 235L497.673 225.617L490.661 230.753L495.089 222.619L487 220.5L495.089 218.381L490.661 210.247L497.673 215.383L499.5 206Z" fill="white"/>
<path d="M625.5 72L627.327 81.3831L634.339 76.247L629.911 84.3805L638 86.5L629.911 88.6195L634.339 96.753L627.327 91.6169L625.5 101L623.673 91.6169L616.661 96.753L621.089 88.6195L613 86.5L621.089 84.3805L616.661 76.247L623.673 81.3831L625.5 72Z" fill="white"/>
<path d="M198.5 214L200.035 220.795L205.925 217.075L202.205 222.965L209 224.5L202.205 226.035L205.925 231.925L200.035 228.205L198.5 235L196.965 228.205L191.075 231.925L194.795 226.035L188 224.5L194.795 222.965L191.075 217.075L196.965 220.795L198.5 214Z" fill="white"/>
<path d="M1513.5 59L1515.03 65.7946L1520.92 62.0754L1517.21 67.9652L1524 69.5L1517.21 71.0348L1520.92 76.9246L1515.03 73.2054L1513.5 80L1511.97 73.2054L1506.08 76.9246L1509.79 71.0348L1503 69.5L1509.79 67.9652L1506.08 62.0754L1511.97 65.7946L1513.5 59Z" fill="white"/>
<path d="M1184.5 87L1186.03 93.7946L1191.92 90.0754L1188.21 95.9652L1195 97.5L1188.21 99.0348L1191.92 104.925L1186.03 101.205L1184.5 108L1182.97 101.205L1177.08 104.925L1180.79 99.0348L1174 97.5L1180.79 95.9652L1177.08 90.0754L1182.97 93.7946L1184.5 87Z" fill="white"/>
<path d="M115.5 48L117.035 54.7946L122.925 51.0754L119.205 56.9652L126 58.5L119.205 60.0348L122.925 65.9246L117.035 62.2054L115.5 69L113.965 62.2054L108.075 65.9246L111.795 60.0348L105 58.5L111.795 56.9652L108.075 51.0754L113.965 54.7946L115.5 48Z" fill="white"/>
<path d="M1405.5 152L1407.03 158.795L1412.92 155.075L1409.21 160.965L1416 162.5L1409.21 164.035L1412.92 169.925L1407.03 166.205L1405.5 173L1403.97 166.205L1398.08 169.925L1401.79 164.035L1395 162.5L1401.79 160.965L1398.08 155.075L1403.97 158.795L1405.5 152Z" fill="white"/>
<path d="M1639.5 200L1641.03 206.795L1646.92 203.075L1643.21 208.965L1650 210.5L1643.21 212.035L1646.92 217.925L1641.03 214.205L1639.5 221L1637.97 214.205L1632.08 217.925L1635.79 212.035L1629 210.5L1635.79 208.965L1632.08 203.075L1637.97 206.795L1639.5 200Z" fill="white"/>
<path d="M1259.5 225L1261.03 231.795L1266.92 228.075L1263.21 233.965L1270 235.5L1263.21 237.035L1266.92 242.925L1261.03 239.205L1259.5 246L1257.97 239.205L1252.08 242.925L1255.79 237.035L1249 235.5L1255.79 233.965L1252.08 228.075L1257.97 231.795L1259.5 225Z" fill="white"/>
</svg>
